<?xml version="1.0" encoding="utf-8"?>
<!-- Generator: Adobe Illustrator 24.3.0, SVG Export Plug-In . SVG Version: 6.00 Build 0)  -->
<svg version="1.1" id="Layer_1" xmlns="http://www.w3.org/2000/svg" xmlns:xlink="http://www.w3.org/1999/xlink" x="0px" y="0px"
	 viewBox="0 0 245.9 117.3" style="enable-background:new 0 0 245.9 117.3;" xml:space="preserve">
<style type="text/css">
	.st0{fill:#37404C;}
</style>
<g>
	<g>
		<path class="st0" d="M40,112.3h-1.7L20.8,90v22.3h-1.7V87.1h1.6l17.6,22.4V87.1H40V112.3z"/>
		<path class="st0" d="M54.5,104.1l-3.7,8.2h-1.9l11.6-25.4h1.7l11.6,25.4H72l-3.7-8.2H54.5z M61.4,88.9l-6.2,13.6h12.3L61.4,88.9z"
			/>
		<path class="st0" d="M88.4,88.7v23.6h-1.7V88.7H77v-1.6h21.1v1.6H88.4z"/>
		<path class="st0" d="M126.9,101.8c0,6.3-4.2,11-10.5,11s-10.5-4.7-10.5-11V87.1h1.7v14.8c0,5.3,3.5,9.4,8.8,9.4
			c5.3,0,8.8-4.1,8.8-9.4V87.1h1.7V101.8z"/>
		<path class="st0" d="M139.7,102.7v9.6H138V87.1h8.9c5.6,0,9.5,2.9,9.5,7.8c0,4.3-3,7.1-7.6,7.7l8.5,9.7h-2.2l-8.4-9.6H139.7z
			 M146.9,101.1c4.6,0,7.8-2.3,7.8-6.2c0-3.9-3.2-6.2-7.8-6.2h-7.2v12.5H146.9z"/>
		<path class="st0" d="M169.5,104.1l-3.7,8.2h-1.9l11.6-25.4h1.7l11.6,25.4H187l-3.7-8.2H169.5z M176.4,88.9l-6.2,13.6h12.3
			L176.4,88.9z"/>
		<path class="st0" d="M214,112.3h-16.2V87.1h1.7v23.7H214V112.3z"/>
		<path class="st0" d="M240.7,93.6h-1.7c-0.7-3.4-3.2-5.6-7.8-5.6c-4.2,0-7,2.1-7,5.4c0,2.4,2,4.1,5.7,4.8L234,99
			c4.3,0.8,6.7,3,6.7,6.4c0,4.5-3.7,7.5-9.2,7.5c-6,0-9.6-3-10.3-8.5h1.7c0.7,4.5,3.6,7,8.7,7c4.5,0,7.4-2.3,7.4-5.7
			c0-2.5-1.8-4.3-5.3-4.9l-4.5-0.9c-4.5-0.8-6.9-3.1-6.9-6.3c0-4.2,3.5-6.9,8.7-6.9C236.4,86.5,240,89.2,240.7,93.6z"/>
	</g>
	<g>
		<path class="st0" d="M89,52.5V22.3h13.2v29.8c0,9.9,4.8,14.6,13.5,14.6c8.6,0,13.4-4.6,13.4-14.6V22.3h13.2v30.2
			c0,17-11.1,25.9-26.4,25.9C100,78.4,89,69.5,89,52.5z"/>
		<path class="st0" d="M43.9,65.3c-2.4,0.6-5,0.9-7.3,0.9c-6.4,0-10.2-3.1-10.2-10.2V33.9h20c1.4-4.2,3.4-7.9,6.1-11h-26V9.6H13.3
			v13.3H1v11h12.3V56c0,13.9,8,22.4,20.8,22.4c3.6,0,6.1-0.3,9.8-1.3V65.3z"/>
		<path class="st0" d="M83.8,21.6c-2.3-0.5-4.8-0.7-7.4-0.7c-15.3,0-26.4,8.9-26.4,25.9V77h13.2V47.2c0-9.9,4.8-14.6,13.4-14.6
			c2.9,0,5.3,0.5,7.3,1.5V21.6z"/>
		<path class="st0" d="M218.1,20.9c-5,0-9.5,0.9-13.3,2.8V4.4h-13.1v42.4V77h13.1h0V47.2c0-9.9,4.8-14.6,13.4-14.6
			c8.8,0,13.5,4.6,13.5,14.6V77h13.2V46.8C244.9,29.8,234,20.9,218.1,20.9z"/>
		<path class="st0" d="M185.8,64.4c-2.5,0.6-5.3,1-7.8,1c-6.4,0-10.2-3.1-10.2-10.2V33.1h18v-11h-18V9.5h-13.1v12.6h-7.5v11h7.5
			v22.1c0,13.9,8,22.4,20.8,22.4c3.8,0,6.3-0.3,10.3-1.4V64.4z"/>
	</g>
</g>
</svg>
